<?xml version="1.0" encoding="utf-8"?>
<!-- Generator: Adobe Illustrator 16.0.0, SVG Export Plug-In . SVG Version: 6.00 Build 0)  -->
<!DOCTYPE svg PUBLIC "-//W3C//DTD SVG 1.1//EN" "http://www.w3.org/Graphics/SVG/1.1/DTD/svg11.dtd">
<svg version="1.1" id="Layer_1" xmlns="http://www.w3.org/2000/svg" xmlns:xlink="http://www.w3.org/1999/xlink" x="0px" y="0px"
	 width="350px" height="50px" viewBox="0 0 350 50" enable-background="new 0 0 350 50" xml:space="preserve">
<g>
	<path fill="#22B9FF" d="M335.125,32.017L347,32.001c0.55,0,1,0.449,1,0.999v15c0,0.55-0.45,1-1,1h-11.875"/>
</g>
<g>
	<path fill="#22B9FF" d="M15.583,49H3.708c-0.55,0-1-0.45-1-1V33c0-0.55,0.45-1,1-0.998l11.875,0.015"/>
</g>
<g>
	<path fill="#22B9FF" d="M336.125,49H9V32l219.167,0.105c0,0,15.222-0.475,17.833-3.105c4.477-4.509-3-12.166-3-20.416
		c0-7,0-7.583,0-7.583h24c0,0,0-1.313,0,7.583c0,6.354-7.48,15.91-3,20.416c2.63,2.645,17.917,3.083,17.917,3.083l54.208-0.066"/>
</g>
</svg>
